<?xml version="1.0" encoding="utf-8"?>
<svg version="1.1" id="Layer_1" xmlns="http://www.w3.org/2000/svg" xmlns:xlink="http://www.w3.org/1999/xlink" x="0px" y="0px"
	 width="16px" height="16px" viewBox="0 0 16 16" enable-background="new 0 0 16 16" xml:space="preserve">
<g>
	<g >
		<path fill="#5865F2" d="M12.7,4.1c-0.9-0.4-1.8-0.7-2.8-0.9c0,0,0,0,0,0C9.8,3.4,9.7,3.7,9.6,3.9c-1.1-0.2-2.1-0.2-3.1,0
			C6.3,3.7,6.2,3.4,6.1,3.2c0,0,0,0,0,0c-1,0.2-1.9,0.5-2.8,0.9c0,0,0,0,0,0c-1.8,2.7-2.3,5.2-2,7.8c0,0,0,0,0,0
			c1.2,0.9,2.3,1.4,3.4,1.7c0,0,0,0,0,0c0.3-0.4,0.5-0.7,0.7-1.1c0,0,0-0.1,0-0.1c-0.4-0.1-0.7-0.3-1.1-0.5c0,0,0-0.1,0-0.1
			c0.1-0.1,0.1-0.1,0.2-0.2c0,0,0,0,0,0c2.2,1,4.7,1,6.9,0c0,0,0,0,0,0c0.1,0.1,0.1,0.1,0.2,0.2c0,0,0,0.1,0,0.1
			c-0.3,0.2-0.7,0.4-1.1,0.5c0,0,0,0,0,0.1c0.2,0.4,0.4,0.8,0.7,1.1c0,0,0,0,0,0c1.1-0.3,2.3-0.9,3.4-1.7c0,0,0,0,0,0
			C15.1,8.9,14.3,6.4,12.7,4.1C12.8,4.1,12.8,4.1,12.7,4.1z M5.7,10.3c-0.7,0-1.2-0.6-1.2-1.4S5,7.6,5.7,7.6C6.4,7.6,7,8.2,7,8.9
			C7,9.7,6.4,10.3,5.7,10.3z M10.3,10.3C9.6,10.3,9,9.7,9,8.9s0.5-1.4,1.2-1.4c0.7,0,1.2,0.6,1.2,1.4C11.5,9.7,11,10.3,10.3,10.3z"
			/>
	</g>
</g>
</svg>
