<?xml version="1.0" encoding="utf-8"?>
<svg version="1.1" id="Layer_1" xmlns="http://www.w3.org/2000/svg" xmlns:xlink="http://www.w3.org/1999/xlink" x="0px" y="0px"
	 width="16px" height="16px" viewBox="0 0 16 16" enable-background="new 0 0 16 16" xml:space="preserve">
<path fill-rule="evenodd" clip-rule="evenodd" fill="#CED0D6" d="M4,14c-1.1,0-2-0.9-2-2V4c0-1.1,0.9-2,2-2h8c1.1,0,2,0.9,2,2v8
	c0,1.1-0.9,2-2,2H4z M3,12V4c0-0.6,0.4-1,1-1h3v3c0,0.6,0.4,1,1,1h5v5c0,0.6-0.4,1-1,1H4C3.4,13,3,12.6,3,12z M13,6V4
	c0-0.6-0.4-1-1-1H8v3H13z"/>
</svg>
