<?xml version="1.0" encoding="utf-8"?>
<svg version="1.1" id="Layer_1" xmlns="http://www.w3.org/2000/svg" xmlns:xlink="http://www.w3.org/1999/xlink" x="0px" y="0px"
	 width="16px" height="16px" viewBox="0 0 16 16" enable-background="new 0 0 16 16" xml:space="preserve">
<path fill-rule="evenodd" clip-rule="evenodd" fill="#CED0D6" d="M12,2c1.1,0,2,0.9,2,2v8c0,1.1-0.9,2-2,2H4c-1.1,0-2-0.9-2-2V4
	c0-1.1,0.9-2,2-2H12z M13,4v8c0,0.6-0.4,1-1,1H4c-0.6,0-1-0.4-1-1V7h5c0.6,0,1-0.4,1-1V3h3C12.6,3,13,3.4,13,4z M8,3H4
	C3.5,3,3.1,3.4,3,3.9C3,3.9,3,4,3,4c0,0,0,0,0,0v2h5V3z"/>
</svg>
