<!-- Copyright 2000-2024 JetBrains s.r.o. and contributors. Use of this source code is governed by the Apache 2.0 license. -->
<svg width="16" height="16" viewBox="0 0 16 16" fill="none" xmlns="http://www.w3.org/2000/svg">
    <path fill-rule="evenodd" clip-rule="evenodd"
          d="M12.1464 9.14645C12.3417 8.95118 12.6583 8.95118 12.8536 9.14645L15.8536 12.1464C16.0488 12.3417 16.0488 12.6583 15.8536 12.8536L12.8536 15.8536C12.6583 16.0488 12.3417 16.0488 12.1464 15.8536C11.9512 15.6583 11.9512 15.3417 12.1464 15.1464L14.2929 13H8.5C8.22386 13 8 12.7761 8 12.5C8 12.2238 8.22386 12 8.5 12H14.2929L12.1464 9.85355C11.9512 9.65829 11.9512 9.34171 12.1464 9.14645Z"
          fill="#548AF7"/>
    <path d="M4 2C2.89543 2 2 2.89543 2 4V12C2 13.1046 2.89543 14 4 14H11.8781L7.00014 13.9994L7.00005 13H4C3.44772 13 3 12.5523 3 12V4C3 3.44772 3.44772 3 4 3H12C12.5523 3 13 3.44772 13 4V7.87834L14 8.87827V4C14 2.89543 13.1046 2 12 2H4Z"
          fill="#CED0D6"/>
    <path d="M10.525 10.9994C10.7895 10.9863 11 10.7677 11 10.5C11 10.2239 10.7761 10 10.5 10H5.5C5.22386 10 5 10.2239 5 10.5C5 10.7761 5.22386 11 5.5 11H8.45659C8.47101 10.9996 8.48548 10.9994 8.5 10.9994H10.525Z"
          fill="#CED0D6"/>
    <path d="M5 5.5C5 5.22386 5.22386 5 5.5 5H10.5C10.7761 5 11 5.22386 11 5.5C11 5.77614 10.7761 6 10.5 6H5.5C5.22386 6 5 5.77614 5 5.5Z"
          fill="#CED0D6"/>
    <path d="M5.5 7.5C5.22386 7.5 5 7.72386 5 8C5 8.27614 5.22386 8.5 5.5 8.5H10.5C10.7761 8.5 11 8.27614 11 8C11 7.72386 10.7761 7.5 10.5 7.5H5.5Z"
          fill="#CED0D6"/>
</svg>
