<?xml version="1.0" encoding="utf-8"?>
<!-- Generator: Adobe Illustrator 25.0.1, SVG Export Plug-In . SVG Version: 6.00 Build 0)  -->
<svg version="1.1" id="Layer_1" xmlns="http://www.w3.org/2000/svg" xmlns:xlink="http://www.w3.org/1999/xlink" x="0px" y="0px"
	 viewBox="0 0 16 16" enable-background="new 0 0 16 16" xml:space="preserve">
<g transform="translate(3 4)">
	<polygon fill-rule="evenodd" clip-rule="evenodd" fill="#63BF6A" points="10.1,4 8,1.9 3,6.9 3,9 5.1,9 	"/>
	<path fill-rule="evenodd" clip-rule="evenodd" fill="#AFB1B3" d="M11.8,2.2c0.2-0.2,0.2-0.8,0-1l-1-1c-0.2-0.2-0.8-0.2-1,0l-1,1
		l2.1,2.1L11.8,2.2z"/>
	<polygon fill-rule="evenodd" clip-rule="evenodd" fill="#AFB1B3" points="5.9,2 4.9,3 0,3 0,2 	"/>
	<polygon fill-rule="evenodd" clip-rule="evenodd" fill="#AFB1B3" points="7.9,0 6.9,1 0,1 0,0 	"/>
	<polygon fill-rule="evenodd" clip-rule="evenodd" fill="#AFB1B3" points="3.9,4 2.9,5 0,5 0,4 	"/>
</g>
</svg>
