<!-- Copyright 2000-2021 JetBrains s.r.o. Use of this source code is governed by the Apache 2.0 license that can be found in the LICENSE file. -->
<svg xmlns="http://www.w3.org/2000/svg" width="16" height="16" viewBox="0 0 16 16">
  <g fill="#AFB1B3">
    <path d="m7.64 8.22-0.845 0.845-1.23-2.05h-1.44v2.68h-1.15v-7.7h2.91c0.82 0 1.46 0.286 1.88 0.77 0.345 0.418 0.541 0.99 0.541 1.66 0 1.29-0.643 2.05-1.55 2.35zm-3.3-2.41h1.42c0.696 0 1.14-0.506 1.14-1.29v-0.022c0-0.825-0.427-1.28-1.15-1.28h-1.42z"/>
    <path d="m14.8 7.24c0.222-0.222 0.222-0.814 0-1.04l-1.04-1.04c-0.222-0.222-0.814-0.222-1.04 0l-1.04 1.04 2.07 2.07z"/>
  </g>
  <polygon points="6 11.9 6 14 8.1 14 13.1 9 11 6.9" fill="#63BF6A"/>
</svg>
