<?xml version="1.0" encoding="utf-8"?>
<svg version="1.0" id="Layer_1" xmlns="http://www.w3.org/2000/svg" xmlns:xlink="http://www.w3.org/1999/xlink" x="0px" y="0px"
	 width="16px" height="16px" viewBox="0 0 16 16" enable-background="new 0 0 16 16" xml:space="preserve">
<path fill="#CED0D6" d="M12,14c0.3,0,0.5-0.2,0.5-0.5c0-0.3-0.2-0.5-0.5-0.5l-8.5-0.1c-0.6,0-1-0.5-1-1l0.1-6.5
	c0-0.3-0.2-0.5-0.5-0.5c-0.3,0-0.5,0.2-0.5,0.5l-0.1,6.5c0,1.1,0.9,2,2,2L12,14z"/>
<path fill-rule="evenodd" clip-rule="evenodd" fill="#CED0D6" d="M3.1,4.4c0-1.1,0.8-2,1.9-2h7.4c1,0,1.9,0.9,1.9,2v6
	c0,1.1-0.8,2-1.9,2H5c-1,0-1.9-0.9-1.9-2V4.4z M5.1,3.4h7.3c0.5,0,0.9,0.4,0.9,1v6c0,0.6-0.4,1-0.9,1H5.1c-0.5,0-0.9-0.4-0.9-1v-6
	C4.1,3.8,4.6,3.4,5.1,3.4z"/>
</svg>
