<?xml version="1.0" encoding="utf-8"?>
<!-- Generator: Adobe Illustrator 25.0.1, SVG Export Plug-In . SVG Version: 6.00 Build 0)  -->
<svg version="1.1" id="Layer_1" xmlns="http://www.w3.org/2000/svg" xmlns:xlink="http://www.w3.org/1999/xlink" x="0px" y="0px"
	 width="250px" height="250px" viewBox="0 0 250 250" style="enable-background:new 0 0 250 250;" xml:space="preserve">
<style type="text/css">
	.st0{fill-rule:evenodd;clip-rule:evenodd;fill:#9AA7B0;fill-opacity:0.8;}
	.st1{fill:#231F20;fill-opacity:0.7;}
	.st2{fill-rule:evenodd;clip-rule:evenodd;fill:#231F20;fill-opacity:0.7;}
	.st3{fill-rule:evenodd;clip-rule:evenodd;fill:#40B6E0;}
</style>
<g>
	<polygon class="st0" points="16.7,14.2 12.7,18.2 16.7,18.2 	"/>
	<polygon class="st0" points="17.7,14.2 17.7,19.2 12.7,19.2 12.7,28.2 22.7,28.2 22.7,14.2 	"/>
</g>
<path class="st1" d="M125.6,62.7c0-0.4,0.3-0.5,0.9-0.5h1.2v-1h-1.1c-1.1,0-1.9,0.5-1.9,1.4c0,0.9,0.4,1.2,1.5,1.5
	c0.8,0.2,1,0.3,1,0.6c0,0.3-0.4,0.5-1,0.5h-1.2v1h1.2c2,0,2-1,2-1.5c0-0.6-0.5-1.1-1.3-1.4C125.9,63,125.6,63,125.6,62.7z"/>
<path class="st1" d="M90.2,81l-0.5,0.6l-0.6-0.5c-0.4,0.3-0.9,0.5-1.5,0.5c-1.5,0-2.5-1.1-2.5-2.5c0-1.4,1-2.5,2.5-2.5
	c1.5,0,2.5,1.1,2.5,2.5c0,0.6-0.2,1.1-0.5,1.5L90.2,81z M87.7,80.7c0.3,0,0.6-0.1,0.8-0.2l-0.8-0.7l0.6-0.6l0.8,0.7
	c0.1-0.2,0.2-0.5,0.2-0.8v0c0-0.9-0.6-1.6-1.5-1.6c-0.9,0-1.5,0.7-1.5,1.6v0C86.1,80,86.8,80.7,87.7,80.7z"/>
<polygon class="st1" points="117,70.6 118,70.6 118,74.6 120.5,74.6 120.5,75.6 117,75.6 "/>
<polygon class="st2" points="88.9,89.8 90.9,89.8 90.9,88.8 87.9,88.8 87.9,93.8 88.9,93.8 88.9,91.8 90.7,91.8 90.7,90.8 
	88.9,90.8 "/>
<polygon class="st2" points="98.6,77.5 100.1,77.5 100.1,76.5 96.1,76.5 96.1,77.5 97.6,77.5 97.6,81.5 98.6,81.5 "/>
<polygon class="st2" points="107.8,90.9 108.7,90.9 110.3,92.9 111.8,90.9 112.8,90.9 112.8,95.9 111.8,95.9 111.8,92.6 110.3,94.4 
	108.8,92.6 108.8,95.9 107.8,95.9 "/>
<path class="st2" d="M145.5,88v-1l3-2v1l-2.2,1.5l2.2,1.5v1L145.5,88z M150.5,89l2.2-1.5l-2.2-1.5v-1l3,2v1l-3,2V89z"/>
<path class="st2" d="M75.1,45.5l-0.7-1.6l-0.6,1.6H75.1z M74,42.5h0.8l2.1,5h-1.1l-0.5-1h-1.8l-0.5,1h-1.1L74,42.5z"/>
<path class="st2" d="M87.6,72.6c0.2,0.3,0.4,0.4,0.9,0.4c0.5,0,0.7-0.4,0.7-0.7V69h1v3.6c0,0.7-0.7,1.4-1.5,1.4
	c-0.8,0-1.3-0.2-1.7-0.7L87.6,72.6z"/>
<path class="st2" d="M74.1,62.4v3h0.6c0.9,0,1.4-0.5,1.4-1.5v0c0-1-0.4-1.5-1.4-1.5H74.1z M73.1,61.4h1.6c1.4,0,2.4,1.1,2.4,2.5
	c0,1.4-1,2.5-2.4,2.5h-1.6V61.4z"/>
<g id="â_x8C__x98__x2F_alphabet_x2F_C">
	<path id="â_x8C__x98__x2F_alphabet_x2F_C_x5F_2" class="st2" d="M94.3,62.4c0-1.5,0.9-2.5,2.3-2.5c0.9,0,1.3,0.3,1.7,0.8l-0.5,0.7
		c-0.3-0.4-0.7-0.4-1.2-0.4c-0.8,0-1.2,0.7-1.2,1.5c0,0.7,0.4,1.5,1.2,1.5c0.5,0,0.8-0.1,1.2-0.5l0.6,0.6c-0.5,0.5-0.8,0.9-1.8,0.9
		C95.2,64.9,94.3,63.9,94.3,62.4z"/>
</g>
<path class="st2" d="M98.4,89.4c0.7,0,1.1-0.1,1.1-0.8s-0.4-0.8-1.1-0.8h-0.9v1.5H98.4z M96.5,86.9h2c1.2,0,2,0.6,2,1.6
	c0,1.6-1,1.9-2.1,1.9h-0.9v1.5h-1V86.9z"/>
<path class="st2" d="M100,67.2h1v2h2v-2h1v5h-1v-2h-2v2h-1V67.2z"/>
<path class="st2" d="M90.7,103.7v-5h2.1c0.6,0,1,0.2,1.3,0.5c0.3,0.3,0.4,0.7,0.4,1.1v0c0,0.8-0.4,1.3-1,1.6l1.1,1.8h-1.2l-1-1.6
	h-0.8v1.6H90.7z M91.8,101.2h1c0.5,0,0.8-0.3,0.8-0.7v0c0-0.5-0.3-0.7-0.8-0.7h-1V101.2z"/>
<polygon class="st2" points="80,80.1 81,80.1 81,75.1 80,75.1 "/>
<path class="st2" d="M121.6,83.9c-0.7,0-1,0.5-1,1.5c0,1,0.3,1.5,1,1.5c0.7,0,1-0.6,1-1.5C122.6,84.5,122.3,83.9,121.6,83.9z
	 M121.6,82.9c1.2,0,2,1.1,2,2.5c0,1.4-0.8,2.5-2,2.5c-1.2,0-2-1.1-2-2.5C119.6,83.9,120.4,82.9,121.6,82.9z"/>
<polygon class="st2" points="110.6,80 109.5,80.5 109.7,81.3 110.5,81 110.5,85 111.5,85 111.5,80 "/>
<path class="st2" d="M145.7,101.1c0-0.2,0-0.6,0-0.8c0-0.8-0.3-1.2-1.2-1.2h-0.3v-1h0.3c0.9,0,1.2-0.3,1.2-1.2c0-0.2,0-0.6,0-0.8
	c0-1.1,0.5-1.7,2.3-2.1l0.2,0.8c-1.2,0.3-1.4,0.7-1.4,1.4c0,0.2,0,0.6,0,0.8c0,0.8-0.4,1.2-1.1,1.4c0.7,0.2,1.1,0.6,1.1,1.4
	c0,0.2,0,0.6,0,0.8c0,0.8,0.2,1.1,1.4,1.4l-0.2,0.8C146.1,102.9,145.7,102.2,145.7,101.1 M149.3,102.4c1.2-0.3,1.4-0.7,1.4-1.4
	c0-0.2,0-0.6,0-0.8c0-0.8,0.4-1.2,1.1-1.4c-0.7-0.2-1.1-0.6-1.1-1.4c0-0.2,0-0.6,0-0.8c0-0.8-0.2-1.1-1.4-1.4l0.2-0.8
	c1.9,0.3,2.3,1,2.3,2.1c0,0.2,0,0.6,0,0.8c0,0.8,0.3,1.2,1.2,1.2h0.3v1H153c-0.9,0-1.2,0.3-1.2,1.2c0,0.2,0,0.6,0,0.8
	c0,1.1-0.5,1.8-2.3,2.1L149.3,102.4z"/>
<polygon class="st2" points="144.9,77.4 143,74.9 142,75.9 145,79.7 148,74.7 147,73.7 "/>
<polygon class="st2" points="130,95.3 128.4,97.7 130,100.3 128.8,100.3 127.8,98.4 126.7,100.3 125.5,100.3 127.1,97.7 125.5,95.3 
	126.7,95.3 127.8,97.1 128.8,95.3 "/>
<path class="st3" d="M159.4,84.6h1.5v-1.5h-1.5V84.6z M160.1,75.6c-1.7,0-3,1.3-3,3h1.5c0-0.8,0.7-1.5,1.5-1.5s1.5,0.7,1.5,1.5
	c0,1.5-2.2,1.3-2.2,3.8h1.5c0-1.7,2.2-1.9,2.2-3.8C163.1,76.9,161.8,75.6,160.1,75.6z"/>
<polygon class="st2" points="78,95.9 78,94 76,90.9 77,90.9 78.5,93.1 79.9,90.9 81,90.9 79,93.9 79,95.9 "/>
</svg>
