<svg width="16" height="16" version="1.1" viewBox="0 0 16 16" xmlns="http://www.w3.org/2000/svg">
  <mask id="clip-1" fill="#FFF">
    <rect width="3" height="16"/>
    <rect x="13" width="3" height="16"/>
  </mask>
  <circle cx="8" cy="8" r="7" fill="#74D27A" fill-opacity=".8" mask="url(#clip-1)"/>
  <mask id="clip-2" fill="#FFF">
    <rect x="4" width="8" height="16"/>
  </mask>
  <circle cx="8" cy="8" r="7" fill="#F98B9E" fill-opacity=".6" mask="url(#clip-2)"/>
  <path d="m12 8c-1e-3 -0.75-0.5-2-2.11-2-0.79 0-1.38 0.2-1.78 0.6-0.4-0.4-0.97-0.604-1.7-0.6-0.47 0-0.94 0.13-1.4 0.4v-0.4h-1v5h1c-0.03-1.84-0.03-2.84 0-3 0.05-0.23 0.25-1 1.2-1s1.3 0.54 1.3 1v3h1v-3c0-0.31 0.26-1 1.28-1 1.02 0 1.22 0.74 1.22 1v1.78 1.22h1l-5e-3-3z" fill="#231F20" fill-opacity=".7"/>
</svg>
