<?xml version="1.0" encoding="UTF-8"?>
<svg width="16" height="16" version="1.1" viewBox="0 0 16 16" xmlns="http://www.w3.org/2000/svg">
  <mask id="clip-1" fill="#FFF">
    <rect width="3" height="16"/>
    <rect x="13" width="3" height="16"/>
  </mask>
  <circle cx="8" cy="8" r="7" fill="#74D27A" fill-opacity=".8" mask="url(#clip-1)"/>
  <mask id="clip-2" fill="#FFF">
    <rect x="4" width="8" height="16"/>
  </mask>
  <mask fill="#FFF">
    <rect x="4" width="8" height="16"/>
  </mask>
  <circle cx="8" cy="8" r="7" fill="#F98B9E" fill-opacity=".6" mask="url(#clip-2)"/>
  <path d="m12 8c-1e-3 -0.749-0.357-2-2.01-2-0.869 0-1.32 0.502-1.38 0.6-0.315-0.406-0.654-0.6-1.5-0.6-0.468 0-0.835 0.0996-1.1 0.299v-0.299h-1v5h1c-0.0333-1.84-0.0333-2.84 0-3 0.05-0.234 0.05-1 1-1s0.999 0.537 1 1v3h1v-3c0-0.314-0.0409-1 0.982-1 1.02 0 1.02 0.74 1.02 1v1.78 1.22h0.992l-5e-3 -3z" fill="#231F20" fill-opacity=".7"/>
</svg>
