<?xml version="1.0" encoding="UTF-8"?>
<svg width="16" height="16" version="1.1" viewBox="0 0 16 16" xmlns="http://www.w3.org/2000/svg">
 <mask id="clip-1" fill="#FFF">
  <rect width="3" height="16"/>
  <rect x="13" width="3" height="16"/>
 </mask>
 <circle cx="8" cy="8" r="7" fill="#74D27A" fill-opacity=".8" mask="url(#clip-1)"/>
 <mask id="clip-2" fill="#FFF">
  <rect x="4" width="8" height="16"/>
 </mask>
 <circle cx="8" cy="8" r="7" fill="#59BAF1" fill-opacity=".6" mask="url(#clip-2)"/>
 <path d="m10 9.28c-0.47 0.459-0.972 0.695-1.9 0.717-1.04 0.022-2.1-0.721-2.1-2 0-1.29 0.971-2 2.1-2 0.848 0 1.45 0.185 1.8 0.554l0.616-0.718c-0.687-0.567-1.23-0.836-2.42-0.836-1.76 0-3.1 1.36-3.1 3 0 1.68 1.36 3 3 3 1.29 0 2.02-0.407 2.61-1.02l-0.616-0.699z" fill="#231F20" fill-opacity=".7"/>
</svg>
