<?xml version="1.0" encoding="UTF-8"?>
<svg width="16" height="16" version="1.1" viewBox="0 0 16 16" xmlns="http://www.w3.org/2000/svg">
  <circle cx="8" cy="8" r="7" fill="#74d27a" fill-opacity=".6"/>
  <path d="m7.63 6.76c-0.16 0.09-0.28 0.21-0.38 0.36s-0.17 0.32-0.21 0.51c-0.04 0.18-0.06 0.37-0.06 0.55 0 0.41 0.07 0.69 0.22 0.88s0.35 0.29 0.6 0.29c0.17 0 0.32-0.05 0.44-0.12s0.22-0.18 0.29-0.31 0.13-0.28 0.17-0.46c0.04-0.17 0.06-0.36 0.07-0.56l0.07-1.2-0.04-0.01c-0.11-0.03-0.2-0.04-0.3-0.05s-0.2-0.02-0.3-0.02c-0.22 0-0.41 0.05-0.57 0.14zm-3.63 1.24c0-4 3.67-4 4.32-4 0.33 0 3.68 0.07 3.68 3.56 0 2.44-1.52 2.44-1.83 2.44-0.5-0.03-0.86-0.23-1.08-0.59-0.41 0.39-0.81 0.59-1.2 0.59-0.81 0-1.89-0.08-1.89-2 0-1.68 1.46-2 2-2 0.15 0 1.75 0.06 1.82 0.08l-0.08 2.11c-0.1 0.7 0.06 1.06 0.49 1.06 0.73 0 0.83-1.47 0.83-1.7 0-2.64-2.36-2.8-2.75-2.8-0.54 0-3.37 0.1-3.37 3.25 0 0.58 0 3.25 2.95 3.25 0.2 0 1.85-0.21 2.27-0.42v0.75c-0.3 0.12-1.07 0.42-2.26 0.42-0.74 0-3.9 0-3.9-4z" fill="#231F20" fill-opacity=".7"/>
</svg>
