<?xml version="1.0" encoding="utf-8"?>
<svg version="1.0" id="Layer_1" xmlns="http://www.w3.org/2000/svg" xmlns:xlink="http://www.w3.org/1999/xlink" x="0px" y="0px"
	 viewBox="0 0 16 16" enable-background="new 0 0 16 16" xml:space="preserve">
<path fill="#EDF3FF" d="M3.3,10.7l-2-2c-0.4-0.4-0.4-1,0-1.4l2-2c0.4-0.4,1-0.4,1.4,0l2,2c0.4,0.4,0.4,1,0,1.4l-2,2
	C4.3,11.1,3.7,11.1,3.3,10.7z"/>
<path fill="#EDF3FF" d="M11.3,10.7l-2-2c-0.4-0.4-0.4-1,0-1.4l2-2c0.4-0.4,1-0.4,1.4,0l2,2c0.4,0.4,0.4,1,0,1.4l-2,2
	C12.3,11.1,11.7,11.1,11.3,10.7z"/>
<path fill="#EBECF0" d="M5.3,4.7l2,2c0.4,0.4,1,0.4,1.4,0l2-2c0.4-0.4,0.4-1,0-1.4l-2-2c-0.4-0.4-1-0.4-1.4,0l-2,2
	C4.9,3.7,4.9,4.3,5.3,4.7z"/>
<path fill="#EBECF0" d="M5.3,12.7l2,2c0.4,0.4,1,0.4,1.4,0l2-2c0.4-0.4,0.4-1,0-1.4l-2-2c-0.4-0.4-1-0.4-1.4,0l-2,2
	C4.9,11.7,4.9,12.3,5.3,12.7z"/>
<path fill-rule="evenodd" clip-rule="evenodd" fill="#3574F0" d="M3.3,10.7l-2-2c-0.4-0.4-0.4-1,0-1.4l2-2c0.4-0.4,1-0.4,1.4,0l2,2
	c0.4,0.4,0.4,1,0,1.4l-2,2C4.3,11.1,3.7,11.1,3.3,10.7z M2,8l2,2l2-2L4,6L2,8z"/>
<path fill-rule="evenodd" clip-rule="evenodd" fill="#6C707E" d="M7.3,6.7l-2-2c-0.4-0.4-0.4-1,0-1.4l2-2c0.4-0.4,1-0.4,1.4,0l2,2
	c0.4,0.4,0.4,1,0,1.4l-2,2C8.3,7.1,7.7,7.1,7.3,6.7z M6,4l2,2l2-2L8,2L6,4z"/>
<path fill-rule="evenodd" clip-rule="evenodd" fill="#6C707E" d="M7.3,14.7l-2-2c-0.4-0.4-0.4-1,0-1.4l2-2c0.4-0.4,1-0.4,1.4,0l2,2
	c0.4,0.4,0.4,1,0,1.4l-2,2C8.3,15.1,7.7,15.1,7.3,14.7z M6,12l2,2l2-2l-2-2L6,12z"/>
<path fill-rule="evenodd" clip-rule="evenodd" fill="#3574F0" d="M11.3,10.7l-2-2c-0.4-0.4-0.4-1,0-1.4l2-2c0.4-0.4,1-0.4,1.4,0l2,2
	c0.4,0.4,0.4,1,0,1.4l-2,2C12.3,11.1,11.7,11.1,11.3,10.7z M10,8l2,2l2-2l-2-2L10,8z"/>
</svg>
