<?xml version="1.0" encoding="UTF-8"?>
<!-- Copyright 2000-2021 JetBrains s.r.o. Use of this source code is governed by the Apache 2.0 license that can be found in the LICENSE file. -->
<svg width="16" height="16" version="1.1" viewBox="0 0 16 16" xmlns="http://www.w3.org/2000/svg">
  <rect transform="rotate(45 8 8)" x="2.8" y="2.8" width="10.4" height="10.4" rx="1" fill="#F4AF3D" fill-opacity=".6"/>
  <path d="m10 9.28c-0.47 0.46-0.972 0.7-1.9 0.72-1.04 0.02-2.1-0.72-2.1-2 0-1.29 0.97-2 2.1-2 0.85 0 1.45 0.19 1.8 0.55l0.62-0.72c-0.69-0.57-1.23-0.84-2.42-0.84-1.76 0-3.1 1.36-3.1 3 0 1.68 1.36 3 3 3 1.29 0 2.02-0.41 2.61-1.02l-0.616-0.7z" fill="#231F20" fill-opacity=".7"/>
</svg>
