<?xml version="1.0" encoding="utf-8"?>
<!-- Generator: Adobe Illustrator 25.0.1, SVG Export Plug-In . SVG Version: 6.00 Build 0)  -->
<svg version="1.1" id="Layer_1" xmlns="http://www.w3.org/2000/svg" xmlns:xlink="http://www.w3.org/1999/xlink" x="0px" y="0px"
	 viewBox="0 0 16 16" enable-background="new 0 0 16 16" xml:space="preserve">
<g>
	<polygon fill-rule="evenodd" clip-rule="evenodd" fill="#9AA7B0" fill-opacity="0.8" points="11.4,7.1 9.2,9.3 11.4,9.3 	"/>
	<polygon fill-rule="evenodd" clip-rule="evenodd" fill="#9AA7B0" fill-opacity="0.8" points="11.9,7.1 11.9,9.8 9.2,9.8 9.2,14.7 
		14.7,14.7 14.7,7.1 	"/>
	<path fill-rule="evenodd" clip-rule="evenodd" fill="#231F20" fill-opacity="0.7" d="M10.3,13.1h2.2v-0.5h-2.2V13.1z M10.3,12h3.3
		v-0.5h-3.3V12z M10.3,10.9h3.3v-0.5h-3.3V10.9z"/>
</g>
<path fill-rule="evenodd" clip-rule="evenodd" fill="#BD9662" fill-opacity="0.8" d="M1,13c0.1,0,7.6,0,7.6,0c0,0,0-6.7,0-6.8
	c0,0,6.4,0,6.4,0c0,0,0-2,0-2.2c-2.3,0-4.7,0-7,0L6.7,2.7C6.2,2.3,5.6,2,5,2H1.1C1,2,1,2,1,2.1C1,5.7,1,9.4,1,13z"/>
<path fill-rule="evenodd" clip-rule="evenodd" fill="#BD9662" d="M14.5,6.2"/>
</svg>
