<?xml version="1.0" encoding="UTF-8"?>
<svg width="16" height="16" version="1.1" viewBox="0 0 16 16" xmlns="http://www.w3.org/2000/svg">
  <circle cx="8" cy="8" r="7" fill="#F98B9E" fill-opacity=".6"/>
  <g  fill="#231F20" fill-opacity=".7">
    <polygon points="5 5 7.44 3 8.24 3 11 5 9.66 5 7.9 3.65 6.33 5"/>
    <path d="m12 8c0-0.7-0.5-2-2.1-2-0.8 0-1.4 0.2-1.9 0.6-0.3-0.4-0.9-0.6-1.6-0.6-0.5 0-0.9 0.1-1.4 0.4v-0.4h-1v5h1v-3c0-0.2 0.25-1 1.2-1s1.3 0.5 1.3 1v3h1v-3c0-0.3 0.3-1 1.3-1s1.2 0.7 1.2 1v1.8 1.2h1v-3z"/>
  </g>
</svg>
