<?xml version="1.0" encoding="utf-8"?>
<!-- Generator: Adobe Illustrator 25.0.1, SVG Export Plug-In . SVG Version: 6.00 Build 0)  -->
<svg version="1.1" id="Layer_1" xmlns="http://www.w3.org/2000/svg" xmlns:xlink="http://www.w3.org/1999/xlink" x="0px" y="0px"
	 width="16px" height="16px" viewBox="0 0 16 16" enable-background="new 0 0 16 16" xml:space="preserve">
<path fill-rule="evenodd" clip-rule="evenodd" fill="#BD9662" fill-opacity="0.8" d="M3,6c0,0.3,0.2,0.6,0.5,0.8l0.3,0.2
	C4,7,4.3,7,4.5,6.9V5.5v-1V3.1C4.3,3,4,3,3.8,3.1L3.5,3.2C3.2,3.4,3,3.7,3,4v0.5v1V6z"/>
<path fill-rule="evenodd" clip-rule="evenodd" fill="#9AA7B0" fill-opacity="0.8" d="M6,14c-1.9,0-4-2.2-4-4V8c0-1.4,0.6-2,1-2V4
	C1.9,4,1,6.1,1,8v2c0,2.7,2.6,5,5,5h5v-1H6z"/>
<path fill-rule="evenodd" clip-rule="evenodd" fill="#BD9662" fill-opacity="0.8" d="M7.1,1H11v7.5V9H9.5H7.1C6,9,5,7.9,5,6.6V3.4
	C5,2.1,6,1,7.1,1z"/>
<rect x="11.5" y="7" fill-rule="evenodd" clip-rule="evenodd" fill="#6E6E6E" fill-opacity="0.8" width="3.5" height="1"/>
<rect x="11.5" y="2" fill-rule="evenodd" clip-rule="evenodd" fill="#6E6E6E" fill-opacity="0.8" width="3.5" height="1"/>
</svg>
