<?xml version="1.0" encoding="UTF-8"?>
<svg width="16" height="16" version="1.1" viewBox="0 0 16 16" xmlns="http://www.w3.org/2000/svg">
  <g fill-opacity=".8">
    <path d="M6,14c-1.9,0-4-2.2-4-4V8c0-1.4,0.6-2,1-2V4  C1.9,4,1,6.1,1,8v2c0,2.7,2.6,5,5,5h5v-1H6z" fill="#9AA7B0"/>
    <g fill="#BD9662">
      <path d="m3 6c0 0.7 0.544 1 1.5 1v-4c-0.948 0-1.5 0.247-1.5 1z"/>
      <path d="m7 1h4v8h-4c-1 0-2-1-2-2v-4c0-1 1-2 2-2z"/>
    </g>
    <g fill="#6E6E6E">
      <rect x="11.5" y="7" width="3.5" height="1"/>
      <rect x="11.5" y="2" width="3.5" height="1"/>
    </g>
  </g>
</svg>
