<?xml version="1.0" encoding="UTF-8"?>
<svg width="16" height="16" version="1.1" viewBox="0 0 16 16" xmlns="http://www.w3.org/2000/svg">
  <circle cx="8" cy="8" r="7" fill="#F4AF3D" fill-opacity=".6"/>
  <path d="m8.15 11c-0.89 0-1.73-0.31-2.43-0.93l0.62-0.73c0.56 0.48 1.12 0.76 1.84 0.76 0.63 0 1.03-0.3 1.03-0.73v-0.017c0-0.42-0.23-0.64-1.32-0.89-1.24-0.3-1.94-0.67-1.94-1.74v-0.02c0-1 0.83-1.69 1.99-1.69 0.85 0 1.52 0.26 2.12 0.73l-0.55 0.78c-0.53-0.39-1.05-0.6-1.58-0.6-0.6 0-0.95 0.31-0.95 0.69v0.02c0 0.45 0.27 0.65 1.39 0.92 1.23 0.3 1.87 0.74 1.87 1.71v0.02c0 1.09-0.86 1.74-2.08 1.74z" fill="#231F20" fill-opacity=".7"/>
</svg>
