<?xml version="1.0" encoding="utf-8"?>
<svg version="1.0" id="Layer_1" xmlns="http://www.w3.org/2000/svg" xmlns:xlink="http://www.w3.org/1999/xlink" x="0px" y="0px"
	 width="16px" height="16px" viewBox="0 0 16 16" enable-background="new 0 0 16 16" xml:space="preserve">
<path fill="#6C707E" d="M0.9,12.5c0,0.3,0.2,0.5,0.5,0.5c0.3,0,0.5-0.2,0.5-0.5l0-8.9C1.9,3.3,1.7,3,1.4,3C1.1,3,0.8,3.3,0.9,3.6
	L0.9,12.5z"/>
<path fill="#6C707E" d="M3.4,2.2"/>
<path fill-rule="evenodd" clip-rule="evenodd" fill="#6C707E" d="M2.4,5c0-1.1,0.8-2,1.9-2h7.4c1,0,1.9,0.9,1.9,2v6
	c0,1.1-0.8,2-1.9,2H4.3c-1,0-1.9-0.9-1.9-2V5z M4.3,4h7.3c0.5,0,0.9,0.4,0.9,1v6c0,0.6-0.4,1-0.9,1H4.3c-0.5,0-0.9-0.4-0.9-1V5
	C3.4,4.4,3.8,4,4.3,4z"/>
<path fill="#6C707E" d="M14.1,12.5c0,0.3,0.2,0.5,0.5,0.5c0.3,0,0.5-0.2,0.5-0.5l0-8.9c0-0.3-0.2-0.6-0.5-0.6
	c-0.3,0-0.5,0.3-0.5,0.6L14.1,12.5z"/>
</svg>
