<svg xmlns="http://www.w3.org/2000/svg" xmlns:xlink="http://www.w3.org/1999/xlink" width="16" height="16" viewBox="0 0 16 16">
  <defs>
    <rect id="abstractclass-a" width="8" height="14"/>
  </defs>
  <g fill="none" fill-rule="evenodd">
    <path fill="#74d27a" fill-opacity=".8"
          d="M3 3.1055C1.764 4.3685 1 6.0935 1 8.0005 1 9.9065 1.764 11.6315 3 12.8945L3 3.1055zM13 3.1055L13 12.8945C14.236 11.6315 15 9.9065 15 8.0005 15 6.0935 14.236 4.3675 13 3.1055"/>
    <g transform="translate(4 1)">
      <mask id="abstractclass-b" fill="#fff">
        <use xlink:href="#abstractclass-a"/>
      </mask>
      <g mask="url(#abstractclass-b)">
        <g transform="translate(-4 -1)">
          <path fill="#59baf1" fill-opacity=".6" d="M15,8 C15,11.866 11.866,15 8,15 C4.134,15 1,11.866 1,8 C1,4.134 4.134,1 8,1 C11.866,1 15,4.134 15,8"/>
          <path fill-rule="evenodd" clip-rule="evenodd" fill="#231F20" fill-opacity="0.7" d="M7.3,6.7c0-0.5,0.4-0.7,1.1-0.7
		c0,0,0.5,0,1.5,0V4.8c-1,0-1.4,0-1.5,0c-1.4,0-2.4,0.6-2.4,1.9c0,1.1,0.5,1.6,1.9,1.9c1,0.2,1.3,0.4,1.3,0.8c0,0.4-0.5,0.6-1.3,0.6
		c0,0-0.5,0-1.5,0v1.3c1,0,1.5,0,1.5,0c2.6,0,2.6-1.3,2.6-1.9c0-0.8-0.6-1.5-1.7-1.8S7.3,7.2,7.3,6.7z"/>

        </g>
      </g>
    </g>
  </g>
</svg>