<?xml version="1.0" encoding="utf-8"?>
<svg version="1.0" id="Layer_1" xmlns="http://www.w3.org/2000/svg" xmlns:xlink="http://www.w3.org/1999/xlink" x="0px" y="0px"
	 width="16px" height="16px" viewBox="0 0 16 16" enable-background="new 0 0 16 16" xml:space="preserve">
<g>
	<path fill-rule="evenodd" clip-rule="evenodd" fill="#59BAF1" fill-opacity="0.6" d="M15,8c0,3.9-3.1,7-7,7s-7-3.1-7-7s3.1-7,7-7
		S15,4.1,15,8"/>
	<path fill-rule="evenodd" clip-rule="evenodd" fill="#231F20" fill-opacity="0.7" d="M7.3,6.7c0-0.5,0.4-0.7,1.1-0.7
		c0,0,0.5,0,1.5,0V4.8c-1,0-1.4,0-1.5,0c-1.4,0-2.4,0.6-2.4,1.9c0,1.1,0.5,1.6,1.9,1.9c1,0.2,1.3,0.4,1.3,0.8c0,0.4-0.5,0.6-1.3,0.6
		c0,0-0.5,0-1.5,0v1.3c1,0,1.5,0,1.5,0c2.6,0,2.6-1.3,2.6-1.9c0-0.8-0.6-1.5-1.7-1.8S7.3,7.2,7.3,6.7z"/>
</g>
</svg>
