<?xml version="1.0" encoding="utf-8"?>
<!-- Generator: Adobe Illustrator 25.0.1, SVG Export Plug-In . SVG Version: 6.00 Build 0)  -->
<svg version="1.1" id="Layer_1" xmlns="http://www.w3.org/2000/svg" xmlns:xlink="http://www.w3.org/1999/xlink" x="0px" y="0px"
	 width="16px" height="16px" viewBox="0 0 16 16" enable-background="new 0 0 16 16" xml:space="preserve">
<g transform="translate(2 1)">
	<path fill-rule="evenodd" clip-rule="evenodd" fill="#AFB1B3" d="M3.1,6.6c1-3.5,4-6.1,7.7-6.1c0.4,0,0.8,0,1.1,0.1
		c0,0,0.1,0,0.1,0v1.1c-2,1.1-3.2,2.7-3.2,4.5C8.8,6.6,8.9,7,9,7.4H7.8C7.8,7,7.7,6.7,7.7,6.3c0-1.8,0.9-3.4,2.5-4.6
		c-3,0.3-5.5,2.7-6.1,5.8h-1V6.6z"/>
	<circle fill-rule="evenodd" clip-rule="evenodd" fill="#E06F52" cx="8.5" cy="10.5" r="3.5"/>
	<path fill-rule="evenodd" clip-rule="evenodd" fill="#E06F52" d="M6.4,6.5C5,7.3,4,8.8,4,10.5c0,0.5,0.1,1,0.2,1.4
		C4,12,3.8,12,3.5,12C1.6,12,0,10.4,0,8.5S1.6,5,3.5,5C4.7,5,5.8,5.6,6.4,6.5z"/>
</g>
</svg>
