<?xml version="1.0" encoding="utf-8"?>
<svg width="16" height="16" viewBox="0 0 16 16" fill="none" xmlns="http://www.w3.org/2000/svg">
  <g style="" transform="matrix(1, 0, 0, 1, -0.386, 0.07)">
    <title>native</title>
    <path d="M 4.386 3.93 L 4.386 11.93 C 4.386 13.034 5.281 13.93 6.386 13.93 L 10.386 13.93 C 11.49 13.93 12.386 13.034 12.386 11.93 L 12.386 3.93 C 12.386 2.825 11.49 1.93 10.386 1.93 L 6.386 1.93 C 5.281 1.93 4.386 2.825 4.386 3.93 Z" fill="#EBECF0" style="stroke-width: 1;"/>
    <path fill-rule="evenodd" clip-rule="evenodd" d="M 4.386 3.93 L 4.386 11.93 C 4.386 13.034 5.281 13.93 6.386 13.93 L 10.386 13.93 C 11.49 13.93 12.386 13.034 12.386 11.93 L 14.886 11.93 C 15.162 11.93 15.386 11.706 15.386 11.43 C 15.386 11.154 15.162 10.93 14.886 10.93 L 12.386 10.93 L 12.386 8.43 L 14.886 8.43 C 15.162 8.43 15.386 8.206 15.386 7.93 C 15.386 7.654 15.162 7.43 14.886 7.43 L 12.386 7.43 L 12.386 4.93 L 14.886 4.93 C 15.162 4.93 15.386 4.706 15.386 4.43 C 15.386 4.154 15.162 3.93 14.886 3.93 L 12.386 3.93 C 12.386 2.825 11.49 1.93 10.386 1.93 L 6.386 1.93 C 5.281 1.93 4.386 2.825 4.386 3.93 Z M 6.386 12.93 C 5.833 12.93 5.386 12.482 5.386 11.93 L 5.386 3.93 C 5.386 3.377 5.833 2.93 6.386 2.93 L 10.386 2.93 C 10.938 2.93 11.386 3.377 11.386 3.93 L 11.386 11.93 C 11.386 12.482 10.938 12.93 10.386 12.93 L 6.386 12.93 Z" fill="#6C707E" style="stroke-width: 1;"/>
    <path d="M 1.886 3.93 C 1.61 3.93 1.386 4.154 1.386 4.43 C 1.386 4.706 1.61 4.93 1.886 4.93 L 4.386 4.93 L 4.386 3.93 L 1.886 3.93 Z" fill="#6C707E" style="stroke-width: 1;"/>
    <path d="M 1.886 7.43 C 1.61 7.43 1.386 7.654 1.386 7.93 C 1.386 8.206 1.61 8.43 1.886 8.43 L 4.386 8.43 L 4.386 7.43 L 1.886 7.43 Z" fill="#6C707E" style="stroke-width: 1;"/>
    <path d="M 1.886 10.93 C 1.61 10.93 1.386 11.154 1.386 11.43 C 1.386 11.706 1.61 11.93 1.886 11.93 L 4.386 11.93 L 4.386 10.93 L 1.886 10.93 Z" fill="#6C707E" style="stroke-width: 1;"/>
  </g>
  <g style="" transform="matrix(1, 0, 0, 1, 0.0135, 0.042286)">
    <title>obj</title>
    <path d="M 9.918 9.452 C 9.918 9.059 10.35 8.82 10.683 9.027 L 14.685 11.525 C 14.999 11.721 14.999 12.178 14.685 12.374 L 10.683 14.871 C 10.35 15.079 9.918 14.84 9.918 14.447 L 9.918 9.452 Z" fill="#F2FCF3" style="stroke-width: 1; pointer-events: auto;"/>
    <path fill-rule="evenodd" clip-rule="evenodd" d="M 8.918 9.452 C 8.918 8.274 10.213 7.556 11.213 8.179 L 15.215 10.677 C 16.156 11.264 16.156 12.635 15.215 13.222 L 11.213 15.72 C 10.213 16.343 8.918 15.625 8.918 14.447 L 8.918 9.452 Z M 10.683 9.028 C 10.35 8.82 9.918 9.059 9.918 9.452 L 9.918 14.447 C 9.918 14.84 10.35 15.079 10.683 14.872 L 14.685 12.374 C 14.999 12.178 14.999 11.721 14.685 11.525 L 10.683 9.028 Z" fill="#208A3C" style="stroke-width: 1; pointer-events: auto;"/>
  </g>
</svg>