<?xml version="1.0" encoding="utf-8"?>
<svg width="16" height="16" viewBox="0 0 16 16" fill="none" xmlns="http://www.w3.org/2000/svg">
  <g style="" transform="matrix(1, 0, 0, 1, -0.386, 0.07)">
    <title>native</title>
    <path d="M 4.386 3.93 L 4.386 11.93 C 4.386 13.034 5.281 13.93 6.386 13.93 L 10.386 13.93 C 11.49 13.93 12.386 13.034 12.386 11.93 L 12.386 3.93 C 12.386 2.825 11.49 1.93 10.386 1.93 L 6.386 1.93 C 5.281 1.93 4.386 2.825 4.386 3.93 Z" fill="#EBECF0" style="stroke-width: 1;"/>
    <path fill-rule="evenodd" clip-rule="evenodd" d="M 4.386 3.93 L 4.386 11.93 C 4.386 13.034 5.281 13.93 6.386 13.93 L 10.386 13.93 C 11.49 13.93 12.386 13.034 12.386 11.93 L 14.886 11.93 C 15.162 11.93 15.386 11.706 15.386 11.43 C 15.386 11.154 15.162 10.93 14.886 10.93 L 12.386 10.93 L 12.386 8.43 L 14.886 8.43 C 15.162 8.43 15.386 8.206 15.386 7.93 C 15.386 7.654 15.162 7.43 14.886 7.43 L 12.386 7.43 L 12.386 4.93 L 14.886 4.93 C 15.162 4.93 15.386 4.706 15.386 4.43 C 15.386 4.154 15.162 3.93 14.886 3.93 L 12.386 3.93 C 12.386 2.825 11.49 1.93 10.386 1.93 L 6.386 1.93 C 5.281 1.93 4.386 2.825 4.386 3.93 Z M 6.386 12.93 C 5.833 12.93 5.386 12.482 5.386 11.93 L 5.386 3.93 C 5.386 3.377 5.833 2.93 6.386 2.93 L 10.386 2.93 C 10.938 2.93 11.386 3.377 11.386 3.93 L 11.386 11.93 C 11.386 12.482 10.938 12.93 10.386 12.93 L 6.386 12.93 Z" fill="#6C707E" style="stroke-width: 1;"/>
    <path d="M 1.886 3.93 C 1.61 3.93 1.386 4.154 1.386 4.43 C 1.386 4.706 1.61 4.93 1.886 4.93 L 4.386 4.93 L 4.386 3.93 L 1.886 3.93 Z" fill="#6C707E" style="stroke-width: 1;"/>
    <path d="M 1.886 7.43 C 1.61 7.43 1.386 7.654 1.386 7.93 C 1.386 8.206 1.61 8.43 1.886 8.43 L 4.386 8.43 L 4.386 7.43 L 1.886 7.43 Z" fill="#6C707E" style="stroke-width: 1;"/>
    <path d="M 1.886 10.93 C 1.61 10.93 1.386 11.154 1.386 11.43 C 1.386 11.706 1.61 11.93 1.886 11.93 L 4.386 11.93 L 4.386 10.93 L 1.886 10.93 Z" fill="#6C707E" style="stroke-width: 1;"/>
  </g>
  <path d="M 11.904 9.926 L 12.904 9.926 L 12.904 14.926 L 11.904 14.926 L 11.904 9.926 Z" fill="#EDF3FF" style="stroke-width: 1;"/>
  <path d="M 9.904 10.926 L 10.904 10.926 L 10.904 14.926 L 9.904 14.926 L 9.904 10.926 Z" fill="#EDF3FF" style="stroke-width: 1;"/>
  <path d="M 14.904 11.926 L 13.904 11.926 L 13.904 14.926 L 14.904 14.926 L 14.904 11.926 Z" fill="#EDF3FF" style="stroke-width: 1;"/>
  <path fill-rule="evenodd" clip-rule="evenodd" d="M 10.904 9.926 C 10.904 9.374 11.352 8.926 11.904 8.926 L 12.904 8.926 C 13.457 8.926 13.904 9.374 13.904 9.926 L 13.904 10.926 L 14.904 10.926 C 15.457 10.926 15.904 11.374 15.904 11.926 L 15.904 14.926 C 15.904 15.479 15.457 15.926 14.904 15.926 L 9.904 15.926 C 9.352 15.926 8.904 15.479 8.904 14.926 L 8.904 10.926 C 8.904 10.374 9.352 9.926 9.904 9.926 L 10.904 9.926 Z M 11.904 9.926 L 12.904 9.926 L 12.904 14.926 L 11.904 14.926 L 11.904 9.926 Z M 10.904 10.926 L 9.904 10.926 L 9.904 14.926 L 10.904 14.926 L 10.904 10.926 Z M 13.904 14.926 L 14.904 14.926 L 14.904 11.926 L 13.904 11.926 L 13.904 14.926 Z" fill="#3574F0" style="stroke-width: 1;"/>
</svg>