<!-- Copyright 2000-2024 JetBrains s.r.o. Use of this source code is governed by the Apache 2.0 license that can be found in the LICENSE file. -->
<svg version="1.1" id="Layer_1" xmlns="http://www.w3.org/2000/svg" xmlns:xlink="http://www.w3.org/1999/xlink" x="0px" y="0px"
	 width="16px" height="16px" viewBox="0 0 16 16" enable-background="new 0 0 16 16" xml:space="preserve">
<path fill="#43454A" d="M12.5,9C11.7,9,8,5,8,5V3.5L6.7,2.3C6.5,2.1,6.3,2,6,2H2.8C1.8,2,1,2.8,1,3.9v8.3c0,1,0.8,1.9,1.8,1.9h10.5
	c1,0,1.8-0.8,1.8-1.9V9H12.5z"/>
<path fill-rule="evenodd" clip-rule="evenodd" fill="#548AF7" d="M12.9,7.9c-0.2,0.2-0.5,0.2-0.7,0l-3-3C9,4.7,9,4.3,9.1,4.1
	C9.3,4,9.7,4,9.9,4.1L12,6.3V0.5C12,0.2,12.2,0,12.5,0S13,0.2,13,0.5v5.8l2.1-2.1c0.2-0.2,0.5-0.2,0.7,0c0.2,0.2,0.2,0.5,0,0.7
	L12.9,7.9z"/>
<path fill="#CED0D6" d="M14,9v3.1c0,0.5-0.4,0.9-0.8,0.9H2.8C2.4,13,2,12.7,2,12.1V3.9C2,3.3,2.4,3,2.8,3H6l2,1.9V3.5L6.7,2.3
	C6.5,2.1,6.3,2,6,2H2.8C1.8,2,1,2.8,1,3.9v8.3c0,1,0.8,1.9,1.8,1.9h10.5c1,0,1.8-0.8,1.8-1.9V9H14z"/>
</svg>
