<?xml version="1.0" encoding="utf-8"?>
<!-- Generator: Adobe Illustrator 25.0.1, SVG Export Plug-In . SVG Version: 6.00 Build 0)  -->
<svg version="1.1" id="Layer_1" xmlns="http://www.w3.org/2000/svg" xmlns:xlink="http://www.w3.org/1999/xlink" x="0px" y="0px"
	 width="100px" height="100px" viewBox="0 0 100 100" enable-background="new 0 0 100 100" xml:space="preserve">
<path fill-rule="evenodd" clip-rule="evenodd" fill="#BD9662" fill-opacity="0.8" d="M20.4,38.1c0,1.9,1.1,3.7,2.8,4.5l1.8,0.9
	c1.4,0.7,3,0.7,4.3,0.1v-8.4v-6v-8.4c-1.3-0.6-2.8-0.7-4.3,0.1l-1.8,0.9c-1.7,0.9-2.8,2.6-2.8,4.5v2.9v6
	C20.4,35.2,20.4,38.1,20.4,38.1z"/>
<path fill-rule="evenodd" clip-rule="evenodd" fill="#9AA7B0" fill-opacity="0.8" d="M38.2,85.5c-11.2,0-23.8-12.9-23.7-23.7V50
	c0-8.4,3.4-11.8,5.9-11.8V26.3C13.9,26.3,8.6,38.6,8.6,50v11.8C8.6,78,24,91.4,38.2,91.4h29.6v-5.9H38.2z"/>
<path fill-rule="evenodd" clip-rule="evenodd" fill="#BD9662" fill-opacity="0.8" d="M44.9,8.6h22.9V53v3h-8.9h-14
	c-7,0-12.7-6.4-12.7-14.2v-19C32.2,14.9,37.9,8.6,44.9,8.6z"/>
<rect x="70.7" y="44.1" fill-rule="evenodd" clip-rule="evenodd" fill="#AFB1B3" fill-opacity="0.8" width="20.7" height="5.9"/>
<rect x="70.7" y="14.5" fill-rule="evenodd" clip-rule="evenodd" fill="#AFB1B3" fill-opacity="0.8" width="20.7" height="5.9"/>
</svg>
