<!-- Copyright 2000-2021 JetBrains s.r.o. Use of this source code is governed by the Apache 2.0 license that can be found in the LICENSE file. -->
<svg version="1.0" id="Layer_1" xmlns="http://www.w3.org/2000/svg" xmlns:xlink="http://www.w3.org/1999/xlink" x="0px" y="0px"
	 width="16px" height="16px" viewBox="0 0 16 16" enable-background="new 0 0 16 16" xml:space="preserve">
<path fill="#6E6E6E" d="M1.2,12c0-1.9,1.5-3.4,3.4-3.4h5.6c1.9,0,3.4,1.5,3.4,3.4l0,0H1.2L1.2,12z"/>
<path fill="#6E6E6E" d="M9.5,13.1c0,1.2-0.9,2.3-2.1,2.3s-2.1-1-2.1-2.3C6.4,13.1,8.5,13.1,9.5,13.1z"/>
<path fill-rule="evenodd" clip-rule="evenodd" fill="#6E6E6E" d="M12.3,7.4c-0.1,0-0.2,0-0.3,0c-2.2,0-4-1.8-4-4
	c0-0.6,0.1-1.1,0.3-1.6C8.1,1.8,7.8,1.8,7.5,1.8c-2.3,0-4.2,1.7-4.5,3.9l-0.6,4h10.3L12.3,7.4z"/>
<circle fill="#389FD6" cx="12" cy="3.5" r="2.8"/>
</svg>
