<?xml version="1.0" encoding="utf-8"?>
<svg version="1.0" id="Layer_1" xmlns="http://www.w3.org/2000/svg" xmlns:xlink="http://www.w3.org/1999/xlink" x="0px" y="0px"
	 width="16px" height="16px" viewBox="0 0 16 16" enable-background="new 0 0 16 16" xml:space="preserve">
<path fill-rule="evenodd" clip-rule="evenodd" fill="#3574F0" d="M10,5.7c0.2-0.2,0.2-0.5,0-0.7C9.8,4.8,9.5,4.8,9.3,5l-8.1,8.1V7.3
	c0-0.3-0.2-0.5-0.5-0.5S0.2,7,0.2,7.3v7c0,0.1,0,0.1,0,0.2c0,0.1,0.1,0.1,0.1,0.2c0,0,0,0,0,0c0.1,0.1,0.2,0.1,0.3,0.1h7
	c0.3,0,0.5-0.2,0.5-0.5s-0.2-0.5-0.5-0.5H1.9L10,5.7z"/>
<path fill-rule="evenodd" clip-rule="evenodd" fill="#369650" d="M6,10.7c-0.2,0.2-0.2,0.5,0,0.7c0.2,0.2,0.5,0.2,0.7,0l8.1-8.1v5.8
	c0,0.3,0.2,0.5,0.5,0.5c0.3,0,0.5-0.2,0.5-0.5v-7c0-0.3-0.2-0.5-0.5-0.5h-7C8,1.6,7.8,1.8,7.8,2.1S8,2.6,8.3,2.6h5.8L6,10.7z"/>
</svg>
