<?xml version="1.0" encoding="utf-8"?>
<!-- Generator: Adobe Illustrator 25.0.1, SVG Export Plug-In . SVG Version: 6.00 Build 0)  -->
<svg version="1.0" id="Layer_1" xmlns="http://www.w3.org/2000/svg" xmlns:xlink="http://www.w3.org/1999/xlink" x="0px" y="0px"
	 viewBox="0 0 16 16" enable-background="new 0 0 16 16" xml:space="preserve">
<path fill="#7289DA" d="M6.8,7.6C6.4,7.6,6.1,8,6.1,8.4s0.3,0.8,0.7,0.8c0.4,0,0.7-0.4,0.7-0.8C7.5,8,7.2,7.6,6.8,7.6z M9.3,7.6
	C8.9,7.6,8.6,8,8.6,8.4s0.3,0.8,0.7,0.8S10,8.8,10,8.4S9.7,7.6,9.3,7.6z"/>
<path fill="#7289DA" d="M12.7,1.5H3.3C2.5,1.5,1.9,2.2,1.9,3v9.8c0,0.8,0.6,1.5,1.4,1.5h8L10.9,13l0.9,0.9l0.8,0.8l1.5,1.4V3
	C14.2,2.2,13.5,1.5,12.7,1.5z M10,11c0,0-0.3-0.3-0.5-0.6c0.9-0.3,1.3-0.9,1.3-0.9C10.6,9.7,10.3,9.9,10,10c-0.4,0.2-0.7,0.3-1,0.3
	c-0.7,0.1-1.3,0.1-1.8,0c-0.4-0.1-0.7-0.2-1-0.3C6,9.9,5.8,9.8,5.7,9.7c0,0,0,0-0.1,0l0,0C5.4,9.6,5.4,9.5,5.4,9.5s0.3,0.6,1.2,0.9
	C6.4,10.6,6.1,11,6.1,11C4.6,10.9,4,9.9,4,9.9c0-2.3,1-4.2,1-4.2c1-0.8,2-0.8,2-0.8V5C5.8,5.4,5.2,5.9,5.2,5.9s0.2-0.1,0.4-0.2
	C6.4,5.4,7,5.3,7.2,5.3h0.1c0.4-0.1,0.9-0.1,1.4,0c0.7,0.1,1.4,0.3,2.1,0.7c0,0-0.6-0.5-1.7-0.9L9.2,5c0,0,1,0,2,0.8
	c0,0,1,1.9,1,4.2C12.2,9.9,11.6,10.9,10,11z"/>
</svg>
