<?xml version="1.0" encoding="utf-8"?>
<svg version="1.0" id="Layer_1" xmlns="http://www.w3.org/2000/svg" xmlns:xlink="http://www.w3.org/1999/xlink" x="0px" y="0px"
	 width="16px" height="16px" viewBox="0 0 16 16" enable-background="new 0 0 16 16" xml:space="preserve">
<g>
	<g>
		<path fill="#EBECF0" d="M10,2H6C4.9,2,4,2.9,4,4v4c0.2,1.7,0.4,3.4,0.6,5.1C5.7,13.4,6.9,13.7,8,14h2c1.1,0,2-0.9,2-2V4
			C12,2.9,11.1,2,10,2z"/>
		<path fill="#6C707E" d="M6,2C4.9,2,4,2.9,4,4H1.5C1.2,4,1,4.2,1,4.5S1.2,5,1.5,5H4v3h1V4c0-0.6,0.4-1,1-1h4c0.6,0,1,0.4,1,1v8
			c0,0.6-0.4,1-1,1H8v1h2c1.1,0,2-0.9,2-2h2.5c0.3,0,0.5-0.2,0.5-0.5S14.8,11,14.5,11H12l0,1V4l0,1h2.5C14.8,5,15,4.8,15,4.5
			S14.8,4,14.5,4H12c0-1.1-0.9-2-2-2H6z"/>
		<path fill="#6C707E" d="M10,14c1.1,0,2-0.9,2-2h2.5c0.3,0,0.5-0.2,0.5-0.5S14.8,11,14.5,11H12V8h-1v4c0,0.6-0.4,1-1,1H6
			c-0.6,0-1-0.4-1-1V4c0-0.6,0.4-1,1-1h2V2H6C4.9,2,4,2.9,4,4H1.5C1.2,4,1,4.2,1,4.5S1.2,5,1.5,5H4l0-1v8l0-1H1.5
			C1.2,11,1,11.2,1,11.5S1.2,12,1.5,12H4c0,1.1,0.9,2,2,2H10z"/>
		<path fill="#6C707E" d="M12,7.5v1h2.5C14.8,8.5,15,8.3,15,8s-0.2-0.5-0.5-0.5H12z"/>
		<path fill="#6C707E" d="M1.6,7.5C1.3,7.5,1,7.7,1,8s0.3,0.5,0.6,0.5h2.5c0.3,0,0.6-0.2,0.6-0.5S4.5,7.5,4.1,7.5H1.6z"/>
	</g>
</g>
</svg>
