<!-- Copyright 2000-2021 JetBrains s.r.o. Use of this source code is governed by the Apache 2.0 license that can be found in the LICENSE file. -->
<svg version="1.0" id="Layer_1" xmlns="http://www.w3.org/2000/svg" xmlns:xlink="http://www.w3.org/1999/xlink" x="0px" y="0px"
	 width="16px" height="16px" viewBox="0 0 16 16" enable-background="new 0 0 16 16" xml:space="preserve">
<path fill="#AFB1B3" d="M3.6,5.3C4,3.1,5.8,1.5,8,1.5l0,0c2.2,0,4,1.6,4.4,3.8L13,9.1H3.1L3.6,5.3z"/>
<path fill="#AFB1B3" d="M2,11.3C2,9.5,3.5,8,5.3,8h5.5c1.8,0,3.3,1.5,3.3,3.3l0,0H2L2,11.3z"/>
<path fill="#AFB1B3" d="M10,12.4c0,1.2-0.9,2.2-2,2.2s-2-1-2-2.2C7,12.4,9,12.4,10,12.4z"/>
</svg>
